<svg width="20" height="20" viewBox="0 0 20 20" xmlns="http://www.w3.org/2000/svg">
  <path fill-rule="evenodd" clip-rule="evenodd"
        d="M13.4878 14.5513C12.1681 15.6477 10.4743 16.3066 8.62708 16.3066C4.41476 16.3066 1 12.8801 1 8.65331C1 4.42651 4.41476 1 8.62708 1C12.8394 1 16.2542 4.42651 16.2542 8.65331C16.2542 10.4753 15.6197 12.1486 14.5603 13.4628L18.7765 17.6935C19.0743 17.9924 19.0743 18.477 18.7765 18.7758C18.4786 19.0747 17.9957 19.0747 17.6978 18.7758L13.4878 14.5513ZM14.7287 8.65331C14.7287 12.0348 11.9969 14.776 8.62708 14.776C5.25722 14.776 2.52542 12.0348 2.52542 8.65331C2.52542 5.27187 5.25722 2.53066 8.62708 2.53066C11.9969 2.53066 14.7287 5.27187 14.7287 8.65331Z"
        fill="currentColor"/>
</svg>
