<?xml version="1.0" encoding="utf-8"?><svg xmlns="http://www.w3.org/2000/svg" xmlns:xlink="http://www.w3.org/1999/xlink"><symbol fill="none" viewBox="0 0 24 24" id="ai-icon-bars" xmlns="http://www.w3.org/2000/svg"><path d="M2 6a1 1 0 0 1 1-1h18a1 1 0 0 1 0 2H3a1 1 0 0 1-1-1ZM2 12a1 1 0 0 1 1-1h18a1 1 0 0 1 0 2H3a1 1 0 0 1-1-1ZM3 17a1 1 0 0 0 0 2h18a1 1 0 0 0 0-2H3Z" fill="currentColor"/></symbol><symbol viewBox="0 0 20 20" id="ai-icon-search" xmlns="http://www.w3.org/2000/svg"><path fill-rule="evenodd" clip-rule="evenodd" d="M13.488 14.551a7.58 7.58 0 0 1-4.86 1.756C4.414 16.307 1 12.88 1 8.653 1 4.427 4.415 1 8.627 1s7.627 3.427 7.627 7.653a7.637 7.637 0 0 1-1.694 4.81l4.216 4.23a.767.767 0 0 1 0 1.083.76.76 0 0 1-1.078 0l-4.21-4.225Zm1.24-5.898c0 3.382-2.731 6.123-6.1 6.123-3.37 0-6.103-2.741-6.103-6.123 0-3.381 2.732-6.122 6.102-6.122s6.102 2.74 6.102 6.122Z" fill="currentColor"/></symbol></svg>